<?xml version="1.0" standalone="no"?>
<!DOCTYPE svg PUBLIC "-//W3C//DTD SVG 20010904//EN"
 "http://www.w3.org/TR/2001/REC-SVG-20010904/DTD/svg10.dtd">
<svg version="1.0" xmlns="http://www.w3.org/2000/svg"
 width="1320.000000pt" height="1320.000000pt" viewBox="0 0 1320.000000 1320.000000"
 preserveAspectRatio="xMidYMid meet">
<metadata>
Created by potrace 1.11, written by Peter Selinger 2001-2013
</metadata>
<g transform="translate(0.000000,1320.000000) scale(0.100000,-0.100000)"
fill="#000000" stroke="none">
<path d="M6160 12980 c-876 -66 -1680 -288 -2435 -670 -1445 -733 -2554 -1970
-3119 -3480 -538 -1436 -536 -3042 3 -4475 264 -699 636 -1331 1122 -1903 157
-185 514 -545 684 -690 813 -695 1730 -1161 2745 -1396 487 -112 917 -160
1440 -160 409 0 706 25 1090 90 867 147 1753 504 2481 999 1233 837 2135 2061
2554 3467 175 584 252 1095 262 1723 7 463 -11 735 -78 1144 -382 2356 -2057
4309 -4330 5049 -441 143 -847 230 -1339 284 -146 16 -267 21 -575 23 -214 2
-442 -1 -505 -5z m900 -1171 c260 -20 524 -62 805 -126 100 -23 114 -29 85
-33 -30 -4 -16 -10 95 -40 112 -30 125 -35 95 -40 l-35 -5 55 -14 c52 -14 54
-15 25 -22 -16 -4 -709 -7 -1540 -7 -830 0 -1523 3 -1540 7 -29 7 -27 8 25 22
55 14 55 14 20 19 -29 4 -14 11 100 42 109 29 127 37 95 38 -40 2 -40 2 -10
11 59 18 353 79 475 98 412 66 837 83 1250 50z m-3360 -929 c0 -7 6 -7 19 -1
15 8 21 7 28 -7 4 -9 9 -900 11 -1979 l2 -1963 193 0 193 0 13 -35 c14 -40 54
-90 83 -106 12 -6 51 -20 87 -32 59 -18 102 -21 387 -26 l321 -6 -37 -90 c-51
-126 -136 -314 -160 -352 l-20 -33 -530 0 -530 0 0 -50 c0 -27 -3 -50 -7 -50
-9 0 -165 128 -406 334 -286 244 -352 298 -487 398 -397 294 -717 410 -1034
378 -116 -12 -255 -45 -353 -84 l-63 -25 0 30 c0 17 9 90 20 162 134 862 476
1679 996 2372 213 285 540 633 797 850 185 157 401 316 407 300 4 -11 10 -10
30 5 28 22 40 25 40 10z m6738 -664 c544 -561 956 -1238 1206 -1979 39 -117
41 -127 26 -127 -19 0 -203 -90 -289 -142 -174 -104 -338 -246 -444 -385 -114
-149 -193 -299 -332 -633 -217 -523 -386 -741 -769 -991 -65 -43 -152 -95
-192 -116 l-73 -38 -23 21 c-13 11 -44 29 -70 38 l-48 18 0 184 0 184 -1565 2
-1564 3 29 47 c17 27 30 51 30 55 0 8 -150 103 -162 103 -8 0 -108 -156 -108
-168 0 -5 12 -15 28 -23 24 -12 -41 -14 -512 -17 -297 -1 -541 0 -544 3 -3 2
17 53 45 112 27 60 74 165 104 235 l54 128 558 0 558 0 -36 -46 c-19 -26 -35
-50 -35 -54 0 -10 141 -113 156 -114 11 -1 124 130 124 143 0 4 -14 20 -31 37
l-30 29 1423 5 1423 5 65 22 c91 31 129 62 157 128 64 152 68 330 12 481 -28
74 -66 114 -125 134 l-49 17 -2 104 c-1 57 -2 141 -2 186 l-1 83 -1777 2
-1777 3 91 105 c191 221 388 383 600 491 l96 49 1006 0 c553 0 1140 -5 1303
-10 284 -10 318 -9 461 16 78 13 158 79 205 170 34 65 57 324 37 414 -22 100
-97 207 -165 234 -22 9 -40 18 -40 21 0 3 22 35 48 73 81 113 154 244 300 542
134 274 225 430 278 477 13 12 24 27 24 34 0 16 156 -128 318 -295z m-749 -3
c-33 -71 -103 -215 -155 -321 l-96 -192 -2228 2 c-1226 2 -2232 7 -2237 11
-11 12 -7 216 7 268 28 112 75 182 161 241 124 84 174 88 1194 94 1109 8 1926
-9 2595 -52 323 -21 470 -24 555 -13 77 11 172 41 219 70 17 11 34 19 38 19 4
0 -20 -57 -53 -127z m-3539 -1749 c-185 -153 -353 -332 -474 -501 l-51 -73
-355 0 c-195 0 -350 4 -345 8 6 4 10 67 10 152 0 128 3 153 24 210 29 78 57
125 102 166 59 53 177 94 309 107 19 2 223 5 453 5 l418 2 -91 -76z m5613
-630 c52 -200 114 -561 137 -804 19 -188 24 -608 11 -806 -95 -1406 -717
-2685 -1761 -3615 -101 -91 -158 -135 -165 -129 -7 6 -25 -2 -48 -21 -20 -17
-37 -25 -37 -19 0 8 -6 9 -17 5 -22 -10 -65 -13 -78 -6 -18 9 -55 10 -61 0 -3
-5 -11 -6 -17 -2 -11 7 -100 11 -249 13 l-48 0 0 70 0 70 -1590 0 c-874 0
-1590 2 -1590 6 0 14 50 77 84 103 20 16 46 41 56 54 11 14 61 56 112 93 51
38 95 71 98 74 3 3 20 16 39 29 146 103 220 158 246 183 16 16 50 40 75 54 25
13 71 43 102 66 125 94 225 164 261 182 20 11 37 23 37 27 0 7 263 199 285
208 11 5 152 106 242 174 32 24 76 53 98 65 22 11 72 45 110 74 39 30 135 99
215 153 200 136 271 186 300 212 14 13 41 31 60 41 43 21 161 101 175 118 6 7
53 39 105 73 52 33 106 69 120 79 14 10 77 54 140 96 63 43 130 91 148 107 18
16 37 29 42 29 15 0 120 101 149 144 68 101 109 309 95 491 l-6 80 84 44 c208
110 476 308 613 453 187 198 298 383 451 750 152 365 235 517 362 665 72 84
195 185 309 254 95 58 264 140 278 136 5 -2 18 -35 28 -73z m-9711 -784 c167
-24 360 -110 578 -256 151 -100 280 -203 590 -469 248 -213 402 -337 487 -395
l52 -35 1 -302 0 -303 190 0 190 0 23 -47 c34 -72 88 -107 194 -127 78 -14
235 -16 1416 -16 l1329 0 -37 -42 c-112 -131 -194 -236 -268 -341 l-82 -118
-1090 -740 c-599 -408 -1095 -743 -1102 -746 -7 -3 -70 40 -140 95 -373 290
-655 460 -898 541 -356 119 -724 63 -1073 -162 -37 -24 -72 -46 -79 -50 -37
-22 -379 574 -531 923 -57 132 -165 420 -159 426 2 2 19 -12 37 -31 19 -19 38
-35 43 -35 11 0 137 113 137 123 0 13 -112 157 -122 157 -5 0 -36 -25 -69 -57
-32 -31 -61 -54 -62 -52 -8 9 -79 274 -106 394 -103 460 -151 1009 -124 1418
l6 98 76 38 c197 99 406 138 593 111z m5368 -1963 c0 -2 -21 -18 -47 -36 l-48
-33 40 36 c35 31 55 43 55 33z m-4170 -1491 c241 -37 519 -182 906 -472 83
-62 156 -120 163 -128 13 -15 -19 -39 -402 -296 l-156 -105 -1 -130 c0 -185
-9 -268 -26 -254 -11 9 -14 8 -14 -6 0 -15 -5 -14 -34 8 -21 17 -37 22 -43 16
-6 -6 -44 15 -109 62 -236 171 -524 425 -721 635 -112 119 -337 384 -354 416
-8 15 4 27 73 72 105 68 183 107 280 139 160 54 285 66 438 43z"/>
<path d="M10555 9773 c-58 -42 -105 -84 -105 -94 0 -18 125 -149 137 -145 22
9 143 109 143 119 0 15 -103 157 -114 157 -6 0 -33 -17 -61 -37z"/>
<path d="M10236 9455 c-31 -41 -56 -78 -56 -83 0 -16 160 -116 169 -106 4 5
30 38 56 73 l49 64 -35 29 c-80 69 -116 98 -121 98 -3 0 -31 -34 -62 -75z"/>
<path d="M10030 9095 c-22 -47 -40 -89 -40 -93 0 -8 189 -87 194 -81 3 4 53
140 62 169 3 11 -18 26 -78 53 -46 20 -86 37 -90 37 -4 0 -25 -38 -48 -85z"/>
<path d="M9882 8719 c-18 -50 -32 -92 -30 -93 15 -11 179 -78 181 -75 9 11 79
191 76 193 -6 5 -180 66 -187 66 -4 0 -22 -41 -40 -91z"/>
<path d="M9760 8437 c0 -7 -18 -44 -41 -81 -22 -37 -39 -69 -37 -71 2 -1 40
-24 86 -51 69 -39 85 -45 93 -33 24 36 89 157 89 165 0 8 -166 84 -182 84 -5
0 -8 -6 -8 -13z"/>
<path d="M9511 8069 l-64 -71 71 -71 71 -71 22 20 c36 32 120 136 117 144 -3
10 -140 120 -148 120 -3 -1 -34 -33 -69 -71z"/>
<path d="M2363 5398 c-61 -11 -60 -7 -36 -125 l18 -85 50 6 c27 4 69 9 93 12
l42 6 0 62 c0 33 -3 78 -6 99 l-7 37 -51 -1 c-28 -1 -75 -6 -103 -11z"/>
<path d="M2735 5388 c-12 -39 -36 -181 -30 -186 6 -6 28 -11 150 -37 l30 -6
28 92 c15 50 24 95 20 100 -10 10 -151 49 -176 49 -10 0 -19 -6 -22 -12z"/>
<path d="M1998 5267 c-43 -23 -78 -45 -78 -49 0 -7 87 -158 96 -167 3 -3 142
62 163 76 2 2 -13 43 -34 93 -26 58 -45 90 -55 90 -8 0 -50 -19 -92 -43z"/>
<path d="M3090 5180 c-24 -49 -42 -91 -39 -93 10 -9 161 -87 167 -87 4 0 29
39 56 86 40 70 47 88 35 95 -37 24 -157 89 -166 89 -5 0 -29 -40 -53 -90z"/>
<path d="M3431 4983 c-36 -57 -51 -88 -42 -91 7 -2 46 -27 87 -55 45 -30 78
-47 82 -40 72 109 104 167 93 171 -7 2 -43 24 -78 49 -36 25 -71 47 -77 49 -6
2 -36 -35 -65 -83z"/>
<path d="M5546 4895 c-16 -52 -27 -96 -25 -98 11 -9 180 -69 182 -66 7 8 67
175 67 185 0 8 -165 74 -186 74 -5 0 -22 -43 -38 -95z"/>
<path d="M3761 4759 l-55 -80 30 -24 c48 -40 134 -99 137 -94 46 56 109 161
101 168 -22 21 -146 111 -152 111 -4 -1 -32 -37 -61 -81z"/>
<path d="M5430 4617 c0 -7 -16 -46 -35 -86 -20 -41 -34 -75 -33 -76 16 -13
169 -97 172 -94 8 9 86 169 86 177 0 8 -164 92 -180 92 -6 0 -10 -6 -10 -13z"/>
<path d="M4081 4529 c-32 -47 -51 -83 -45 -88 41 -38 157 -112 162 -104 43 64
103 165 101 167 -28 20 -159 106 -161 106 -2 -1 -27 -37 -57 -81z"/>
<path d="M4406 4305 c-27 -47 -47 -87 -45 -89 9 -8 169 -86 177 -86 9 0 98
178 91 182 -16 11 -161 78 -167 78 -4 0 -29 -38 -56 -85z"/>
<path d="M5195 4289 c-27 -21 -56 -39 -62 -39 -7 0 -13 -4 -13 -9 0 -10 61
-172 68 -181 6 -8 129 60 168 95 l39 34 -70 70 c-38 39 -72 71 -75 70 -3 0
-27 -18 -55 -40z"/>
<path d="M4797 4233 c-17 -30 -58 -176 -51 -183 12 -11 118 -30 170 -30 39 0
42 2 48 31 3 17 6 60 6 94 l0 62 -62 11 c-35 6 -73 14 -84 17 -12 4 -24 3 -27
-2z"/>
</g>
</svg>
